<?xml version="1.0" encoding="UTF-8"?>
<svg width="100px" height="100px" version="1.1" viewBox="0 0 100 100" xmlns="http://www.w3.org/2000/svg" xmlns:cc="http://creativecommons.org/ns#" xmlns:dc="http://purl.org/dc/elements/1.1/" xmlns:rdf="http://www.w3.org/1999/02/22-rdf-syntax-ns#" xmlns:xlink="http://www.w3.org/1999/xlink">
 <metadata>
  <rdf:RDF>
   <cc:Work rdf:about="">
    <dc:format>image/svg+xml</dc:format>
    <dc:type rdf:resource="http://purl.org/dc/dcmitype/StillImage"/>
    <dc:title>Hello, my name is Juju</dc:title>
   </cc:Work>
  </rdf:RDF>
 </metadata>
 <title>Hello, my name is Juju</title>
 <desc>Logo for the hello-juju charm.</desc>
 <defs>
  <path id="hellojujub" d="m50 4.0425e-14c-27.613 0-50 22.385-50 50 0 27.614 22.387 50 50 50s50-22.387 50-50c0-27.615-22.387-50-50-50z"/>
 </defs>
 <g fill="#fff" fill-rule="evenodd">
  <g id="eclispe-che" fill="#fff">
   <g id="path3023-path">
    <use width="100%" height="100%" fill="#ffffff" fill-rule="evenodd" xlink:href="#hellojujub"/>
    <path d="m50 0.5c-27.338 0-49.5 22.162-49.5 49.5 0 27.337 22.163 49.5 49.5 49.5s49.5-22.163 49.5-49.5c0-27.338-22.162-49.5-49.5-49.5z" fill="#fff"/>
   </g>
  </g>
 </g>
 <path d="m10.807 43.265v-19.055c0-2.6137 2.4422-4.7179 5.4759-4.7179v0h67.434c3.0336 0 5.4759 2.1042 5.4759 4.7179v19.055z" fill="#f00" stroke="#f00" stroke-linecap="round" stroke-linejoin="round" stroke-width="2.2677"/>
 <path d="m89.193 73.083v1.9492c0 3.0336-2.4422 5.4759-5.4759 5.4759h-67.434c-3.0336 0-5.4759-2.4422-5.4759-5.4759v-1.9492z" fill="#f00" stroke="#f00" stroke-linecap="round" stroke-linejoin="round" stroke-width="2.2677"/>
 <g font-family="sans-serif" word-spacing="0px">
  <text x="49.789856" y="32.46822" fill="#ffffff" font-size="13.333px" letter-spacing="3.3px" style="line-height:1.25" xml:space="preserve"><tspan x="51.439854" y="32.46822" fill="#ffffff" font-family="Ubuntu" font-size="14.667px" letter-spacing="3.3px" text-align="center" text-anchor="middle">HELLO</tspan></text>
  <text x="29.77075" y="41.631355" fill="#000000" font-size="10.667px" letter-spacing="0px" style="line-height:1.25" xml:space="preserve"><tspan x="29.77075" y="41.631355" fill="#ffffff" font-family="Ubuntu" font-size="8px">my name is</tspan></text>
  <g transform="translate(-.19876 -.80404)" aria-label="juju">
   <path d="m19.901 76.879c-0.32 0-0.73333-0.04-1.24-0.12s-0.93333-0.18667-1.28-0.32l0.48-3.04c0.26667 0.08 0.57333 0.14667 0.92 0.2 0.34667 0.05333 0.66667 0.08 0.96 0.08 1.28 0 2.1867-0.4 2.72-1.2 0.56-0.77333 0.84-1.92 0.84-3.44v-20.44h3.72v20.4c0 2.6667-0.61333 4.64-1.84 5.92-1.2 1.3067-2.96 1.96-5.28 1.96z"/>
   <path d="m50.017 68.799q-1.28 0.32-3.4 0.68-2.08 0.36-4.84 0.36-2.4 0-4.04-0.68-1.64-0.72-2.64-2t-1.44-3q-0.44-1.76-0.44-3.88v-11.68h3.72v10.88q0 3.8 1.2 5.44t4.04 1.64q0.6 0 1.24-0.04t1.2-0.08q0.56-0.08 1-0.12 0.48-0.08 0.68-0.16v-17.56h3.72z"/>
   <path d="m53.026 76.879c-0.32 0-0.73333-0.04-1.24-0.12s-0.93333-0.18667-1.28-0.32l0.48-3.04c0.26667 0.08 0.57333 0.14667 0.92 0.2 0.34667 0.05333 0.66667 0.08 0.96 0.08 1.28 0 2.1867-0.4 2.72-1.2 0.56-0.77333 0.84-1.92 0.84-3.44v-20.44h3.72v20.4c0 2.6667-0.61333 4.64-1.84 5.92-1.2 1.3067-2.96 1.96-5.28 1.96z"/>
   <path d="m83.142 68.799q-1.28 0.32-3.4 0.68-2.08 0.36-4.84 0.36-2.4 0-4.04-0.68-1.64-0.72-2.64-2t-1.44-3q-0.44-1.76-0.44-3.88v-11.68h3.72v10.88q0 3.8 1.2 5.44t4.04 1.64q0.6 0 1.24-0.04t1.2-0.08q0.56-0.08 1-0.12 0.48-0.08 0.68-0.16v-17.56h3.72z"/>
  </g>
 </g>
 <path id="hellojujua" d="m7.9579 69.89c0.9122-0.25117 1.8155-0.51713 2.7441-0.70456 0.55865-0.11277 1.1227-0.19698 1.6849-0.2905 0.90429-0.15044 1.8059-0.31967 2.7145-0.44138 0.60727-0.08134 4.4266-0.43843 5.0133-0.50305 2.107-0.23209 4.4036-0.56683 6.5284-0.70602 1.3729-0.08993 2.7496-0.11039 4.1238-0.17654 1.3945-0.06712 2.7884-0.14579 4.1824-0.22326 1.252-0.06958 2.5045-0.13132 3.7554-0.21791 1.6857-0.11668 3.3666-0.30514 5.0541-0.39187 2.8344-0.14568 5.3526-0.0072 8.2063 0.01538 1.4038 0.01109 2.8076-0.0032 4.2114-0.0068 1.2264-0.0031 2.4532-0.04701 3.6791-0.01328 1.2903 0.03551 2.5769 0.15533 3.866 0.22091 1.1443 0.05822 5.43 0.21686 6.4688 0.29997 1.0735 0.08588 2.137 0.27699 3.2108 0.36052 0.98823 0.07688 1.9826 0.04889 2.9712 0.12043 0.79242 0.05734 1.5765 0.20426 2.3686 0.26596 5.4837 0.42717-0.75966-0.20432 4.3516 0.16883 0.66912 0.04885 1.3308 0.17876 2.0001 0.22459 0.54859 0.03756 1.0996 0.01604 1.6494 0.02531 0.56737 0.0096 1.1356-0.0024 1.7021 0.03122 0.44061 0.02613 0.87464 0.13669 1.3159 0.14776 0.37731 0.0095 0.75202-0.06773 1.129-0.08643 0.78306-0.03884 1.5678-0.02951 2.3514-0.05576 0.33942-0.01138 0.67831-0.05455 1.0178-0.04561 0.28239 0.0074 0.56144 0.06304 0.84217 0.09456 0.26318 0.02955 0.52635 0.0591 0.78953 0.08865 1.1053 0.12412 2.2107 0.24823 3.316 0.37234 0.7018 0.0788 1.4036 0.15761 2.1054 0.23641 0.10527 0.01182 0.21054 0.02364 0.31582 0.03546 0.12281 0.01379 0.25476-0.0071 0.36844 0.04137 0.069 0.0294 0.0773 0.13487 0.14018 0.17564 0.0445 0.02883 0.10527 0.01182 0.15791 0.01773 0.21059 0.02365 0.10521 0.01181 0.3158 0.03546" fill="none"/>
</svg>
